# xmcd
#
# Track frame offsets: 
#        150
#        52347
#        55420
#        105860
#        112452
#        131472
#        136202
#        157917
#        176830
#        194855
#        209290
#        234135
#        242940
#        255852
#
# Disc length: 4367 seconds
#
# Revision: 2
# Processed by: cddbd v1.5.2PL0 Copyright (c) Steve Scherf et al.
# Submitted via: ExactAudioCopy v0.95a4
#
DISCID=cb110d0e
DTITLE=George Gershwin - Memorial Concert
DYEAR=1900
DGENRE=
TTITLE0=Gershwin intro
TTITLE1=Anthology intro
TTITLE2=Anthology
TTITLE3=Porgy and Bess intro
TTITLE4=a. Summertime
TTITLE5=end Summertime
TTITLE6=b. My Man's Gone Now
TTITLE7=c. The Buzzard Song
TTITLE8=d. The Train Song
TTITLE9=e. I Got Plenty O'Nothing
TTITLE10=f. Bess, You is My Woman Now
TTITLE11=g. I'm On My Way
TTITLE12=end Porgy and Bess
TTITLE13=Rhapsody in Blue
EXTD=Los Angeles Philharmonic Orchestra\n\nexactly as broadcast on CBS
EXTD=radio from the Hollywood Bowl 1937 Sep 8
EXTT0=The Man I Love      Do It Again\nLiza                       I Go
EXTT0=t Rhythm\nLady Be Good        Wintergreen                       
EXTT0=For  President\nSomebody Loves Me Strike Up the          
EXTT0=            Band
EXTT1=
EXTT2=The Man I Love - Do It Again\nLisa  - I Got Rhythm\nLady Be Good - 
EXTT2=Wintergreen for President\nSomebody Loves Me - Strike Up the Band
EXTT3=
EXTT4=
EXTT5=
EXTT6=
EXTT7=
EXTT8=
EXTT9=
EXTT10=
EXTT11=
EXTT12=
EXTT13=
PLAYORDER=
